<svg width="81" height="81" viewBox="0 0 81 81" fill="none" xmlns="http://www.w3.org/2000/svg">
<path d="M40.5 6.75C36.0679 6.75 31.6792 7.62297 27.5844 9.31907C23.4897 11.0152 19.7691 13.5012 16.6351 16.6351C10.3058 22.9645 6.75 31.5489 6.75 40.5C6.75 55.4175 16.4363 68.0737 29.835 72.5625C31.5225 72.8325 32.0625 71.7863 32.0625 70.875V65.1712C22.7138 67.1962 20.7225 60.6487 20.7225 60.6487C19.17 56.7337 16.9763 55.6875 16.9763 55.6875C13.905 53.595 17.2125 53.6625 17.2125 53.6625C20.5875 53.8987 22.3763 57.1388 22.3763 57.1388C25.3125 62.2688 30.2737 60.75 32.1975 59.94C32.5012 57.7463 33.3788 56.2613 34.3238 55.4175C26.8313 54.5738 18.9675 51.6712 18.9675 38.8125C18.9675 35.0662 20.25 32.0625 22.4438 29.6662C22.1063 28.8225 20.925 25.3125 22.7812 20.7563C22.7812 20.7563 25.6163 19.845 32.0625 24.1988C34.7288 23.4563 37.6312 23.085 40.5 23.085C43.3688 23.085 46.2712 23.4563 48.9375 24.1988C55.3837 19.845 58.2188 20.7563 58.2188 20.7563C60.075 25.3125 58.8938 28.8225 58.5563 29.6662C60.75 32.0625 62.0325 35.0662 62.0325 38.8125C62.0325 51.705 54.135 54.54 46.6088 55.3837C47.8238 56.43 48.9375 58.4888 48.9375 61.6275V70.875C48.9375 71.7863 49.4775 72.8663 51.1988 72.5625C64.5975 68.04 74.25 55.4175 74.25 40.5C74.25 36.0679 73.377 31.6792 71.6809 27.5844C69.9848 23.4897 67.4988 19.7691 64.3649 16.6351C61.2309 13.5012 57.5103 11.0152 53.4156 9.31907C49.3208 7.62297 44.9321 6.75 40.5 6.75Z" fill="white"/>
</svg>
