<!DOCTYPE svg PUBLIC "-//W3C//DTD SVG 1.1//EN" "http://www.w3.org/Graphics/SVG/1.1/DTD/svg11.dtd">
<!-- Uploaded to: SVG Repo, www.svgrepo.com, Transformed by: SVG Repo Mixer Tools -->
<svg fill="#FFB700" height="800px" width="800px" version="1.1" id="Capa_1" xmlns="http://www.w3.org/2000/svg" xmlns:xlink="http://www.w3.org/1999/xlink" viewBox="0 0 356.62 356.62" xml:space="preserve">
<g id="SVGRepo_bgCarrier" stroke-width="0"/>
<g id="SVGRepo_tracerCarrier" stroke-linecap="round" stroke-linejoin="round"/>
<g id="SVGRepo_iconCarrier"> <g> <path d="M178.31,0C79.99,0,0,79.99,0,178.311S79.99,356.62,178.31,356.62s178.31-79.989,178.31-178.31S276.63,0,178.31,0z M178.31,326.62C96.532,326.62,30,260.089,30,178.311S96.532,30,178.31,30s148.31,66.532,148.31,148.311 S260.088,326.62,178.31,326.62z"/> <path d="M178.31,66.949c-35.58,0-64.527,28.947-64.527,64.527c0,8.284,6.716,15,15,15s15-6.716,15-15 c0-19.038,15.489-34.527,34.527-34.527s34.527,15.489,34.527,34.527s-15.489,34.527-34.527,34.527c-8.284,0-15,6.716-15,15v33.915 c0,8.284,6.716,15,15,15s15-6.716,15-15v-20.675c28.371-6.779,49.527-32.35,49.527-62.768 C242.837,95.896,213.89,66.949,178.31,66.949z"/> <circle cx="178.31" cy="265.899" r="20.999"/> </g> </g>
</svg>