<?xml version="1.0" encoding="UTF-8"?>
<svg xmlns="http://www.w3.org/2000/svg" xmlns:xlink="http://www.w3.org/1999/xlink" width="50px" height="50px" viewBox="0 0 50 48" version="1.1">
<g id="surface1">
<path style=" stroke:none;fill-rule:nonzero;fill:rgb(42.352941%,87.45098%,70.588235%);fill-opacity:1;" d="M 25 0.15625 L 25 23.652344 C 29.921875 23.652344 33.914062 18.390625 33.914062 11.902344 C 33.914062 5.414062 29.921875 0.15625 25 0.15625 Z M 25 0.15625 "/>
<path style=" stroke:none;fill-rule:nonzero;fill:rgb(48.235294%,100%,80.392157%);fill-opacity:1;" d="M 25 0.15625 C 28.101562 0.15625 30.617188 5.414062 30.617188 11.902344 C 30.617188 18.390625 28.101562 23.652344 25 23.652344 C 20.074219 23.652344 16.085938 18.390625 16.085938 11.902344 C 16.085938 5.414062 20.074219 0.15625 25 0.15625 Z M 25 0.15625 "/>
<path style=" stroke:none;fill-rule:nonzero;fill:rgb(48.235294%,100%,80.392157%);fill-opacity:1;" d="M 0.332031 17.867188 L 22.945312 25.128906 C 24.46875 20.5 20.640625 15.125 14.394531 13.117188 C 8.148438 11.113281 1.855469 13.238281 0.332031 17.867188 Z M 0.332031 17.867188 "/>
<path style=" stroke:none;fill-rule:nonzero;fill:rgb(42.352941%,87.45098%,70.588235%);fill-opacity:1;" d="M 0.332031 17.867188 C 1.292969 14.949219 7.132812 14.210938 13.375 16.214844 C 19.621094 18.222656 23.90625 22.210938 22.945312 25.128906 C 21.425781 29.753906 15.128906 31.882812 8.882812 29.875 C 2.640625 27.871094 -1.1875 22.496094 0.332031 17.867188 Z M 0.332031 17.867188 "/>
<path style=" stroke:none;fill-rule:nonzero;fill:rgb(42.352941%,87.45098%,70.588235%);fill-opacity:1;" d="M 9.757812 46.523438 L 23.730469 27.515625 C 19.746094 24.652344 13.390625 26.589844 9.53125 31.839844 C 5.671875 37.089844 5.773438 43.664062 9.757812 46.523438 Z M 9.757812 46.523438 "/>
<path style=" stroke:none;fill-rule:nonzero;fill:rgb(48.235294%,100%,80.392157%);fill-opacity:1;" d="M 9.757812 46.523438 C 7.246094 44.71875 8.339844 39.003906 12.199219 33.753906 C 16.058594 28.503906 21.222656 25.710938 23.730469 27.515625 C 27.714844 30.375 27.816406 36.949219 23.957031 42.199219 C 20.097656 47.445312 13.738281 49.382812 9.757812 46.523438 Z M 9.757812 46.523438 "/>
<path style=" stroke:none;fill-rule:nonzero;fill:rgb(36.470588%,75.294118%,60.392157%);fill-opacity:1;" d="M 40.246094 46.523438 L 26.269531 27.511719 C 22.289062 30.375 22.1875 36.945312 26.046875 42.195312 C 29.90625 47.445312 36.261719 49.382812 40.246094 46.523438 Z M 40.246094 46.523438 "/>
<path style=" stroke:none;fill-rule:nonzero;fill:rgb(42.352941%,87.45098%,70.588235%);fill-opacity:1;" d="M 40.246094 46.523438 C 37.734375 48.324219 32.570312 45.53125 28.714844 40.28125 C 24.855469 35.03125 23.761719 29.316406 26.269531 27.511719 C 30.253906 24.652344 36.613281 26.589844 40.472656 31.839844 C 44.328125 37.089844 44.230469 43.660156 40.246094 46.523438 Z M 40.246094 46.523438 "/>
<path style=" stroke:none;fill-rule:nonzero;fill:rgb(30.196078%,62.745098%,50.588235%);fill-opacity:1;" d="M 49.667969 17.863281 L 27.054688 25.125 C 28.578125 29.753906 34.871094 31.878906 41.117188 29.875 C 47.359375 27.871094 51.1875 22.492188 49.667969 17.863281 Z M 49.667969 17.863281 "/>
<path style=" stroke:none;fill-rule:nonzero;fill:rgb(36.470588%,75.294118%,60.392157%);fill-opacity:1;" d="M 49.667969 17.867188 C 50.625 20.78125 46.339844 24.773438 40.097656 26.777344 C 33.851562 28.78125 28.011719 28.042969 27.054688 25.125 C 25.535156 20.5 29.363281 15.121094 35.605469 13.117188 C 41.851562 11.113281 48.144531 13.238281 49.667969 17.867188 Z M 49.667969 17.867188 "/>
<path style=" stroke:none;fill-rule:nonzero;fill:rgb(52.54902%,28.627451%,25.490196%);fill-opacity:1;" d="M 25 29.371094 C 27.003906 29.371094 28.625 27.765625 28.625 25.785156 C 28.625 23.808594 27.003906 22.203125 25 22.203125 C 22.996094 22.203125 21.375 23.808594 21.375 25.785156 C 21.375 27.765625 22.996094 29.371094 25 29.371094 Z M 25 29.371094 "/>
<path style=" stroke:none;fill-rule:nonzero;fill:rgb(100%,100%,100%);fill-opacity:1;" d="M 25 14.820312 C 24.546875 14.820312 24.175781 15.183594 24.175781 15.632812 L 24.175781 20.195312 L 25.824219 20.195312 L 25.824219 15.632812 C 25.824219 15.183594 25.457031 14.820312 25 14.820312 Z M 25 14.820312 "/>
<path style=" stroke:none;fill-rule:nonzero;fill:rgb(100%,100%,100%);fill-opacity:1;" d="M 14.445312 22.398438 C 14.304688 22.824219 14.542969 23.285156 14.976562 23.425781 L 19.363281 24.832031 L 19.875 23.285156 L 15.484375 21.875 C 15.050781 21.734375 14.585938 21.96875 14.445312 22.398438 Z M 14.445312 22.398438 "/>
<path style=" stroke:none;fill-rule:nonzero;fill:rgb(100%,100%,100%);fill-opacity:1;" d="M 18.476562 34.660156 C 18.847656 34.921875 19.363281 34.84375 19.628906 34.476562 L 22.34375 30.789062 L 21.007812 29.832031 L 18.296875 33.519531 C 18.027344 33.886719 18.109375 34.394531 18.476562 34.660156 Z M 18.476562 34.660156 "/>
<path style=" stroke:none;fill-rule:nonzero;fill:rgb(100%,100%,100%);fill-opacity:1;" d="M 31.523438 34.660156 C 31.890625 34.394531 31.972656 33.886719 31.707031 33.519531 L 28.992188 29.832031 L 27.660156 30.789062 L 30.371094 34.476562 C 30.640625 34.84375 31.15625 34.921875 31.523438 34.660156 Z M 31.523438 34.660156 "/>
<path style=" stroke:none;fill-rule:nonzero;fill:rgb(100%,100%,100%);fill-opacity:1;" d="M 35.554688 22.398438 C 35.414062 21.96875 34.949219 21.734375 34.515625 21.875 L 30.125 23.285156 L 30.636719 24.832031 L 35.023438 23.425781 C 35.457031 23.285156 35.695312 22.824219 35.554688 22.398438 Z M 35.554688 22.398438 "/>
<path style=" stroke:none;fill-rule:nonzero;fill:rgb(48.235294%,100%,80.392157%);fill-opacity:1;" d="M 6.574219 23.628906 C 7.03125 23.628906 7.398438 23.261719 7.398438 22.8125 C 7.398438 22.363281 7.03125 22 6.574219 22 C 6.121094 22 5.75 22.363281 5.75 22.8125 C 5.75 23.261719 6.121094 23.628906 6.574219 23.628906 Z M 6.574219 23.628906 "/>
<path style=" stroke:none;fill-rule:nonzero;fill:rgb(36.470588%,75.294118%,60.392157%);fill-opacity:1;" d="M 37.566406 39.722656 C 38.019531 39.722656 38.390625 39.355469 38.390625 38.90625 C 38.390625 38.457031 38.019531 38.09375 37.566406 38.09375 C 37.109375 38.09375 36.742188 38.457031 36.742188 38.90625 C 36.742188 39.355469 37.109375 39.722656 37.566406 39.722656 Z M 37.566406 39.722656 "/>
<path style=" stroke:none;fill-rule:nonzero;fill:rgb(48.235294%,100%,80.392157%);fill-opacity:1;" d="M 8.773438 20.371094 C 9.226562 20.371094 9.597656 20.003906 9.597656 19.554688 C 9.597656 19.105469 9.226562 18.742188 8.773438 18.742188 C 8.316406 18.742188 7.949219 19.105469 7.949219 19.554688 C 7.949219 20.003906 8.316406 20.371094 8.773438 20.371094 Z M 8.773438 20.371094 "/>
<path style=" stroke:none;fill-rule:nonzero;fill:rgb(100%,84.313725%,39.215686%);fill-opacity:1;" d="M 25 23.996094 C 26.425781 23.996094 27.582031 22.855469 27.582031 21.445312 C 27.582031 20.035156 26.425781 18.890625 25 18.890625 C 23.574219 18.890625 22.417969 20.035156 22.417969 21.445312 C 22.417969 22.855469 23.574219 23.996094 25 23.996094 Z M 25 23.996094 "/>
<path style=" stroke:none;fill-rule:nonzero;fill:rgb(100%,71.764706%,31.764706%);fill-opacity:1;" d="M 20.820312 27 C 22.246094 27 23.402344 25.855469 23.402344 24.445312 C 23.402344 23.035156 22.246094 21.894531 20.820312 21.894531 C 19.394531 21.894531 18.238281 23.035156 18.238281 24.445312 C 18.238281 25.855469 19.394531 27 20.820312 27 Z M 20.820312 27 "/>
<path style=" stroke:none;fill-rule:nonzero;fill:rgb(100%,84.313725%,39.215686%);fill-opacity:1;" d="M 22.417969 31.855469 C 23.84375 31.855469 25 30.710938 25 29.300781 C 25 27.894531 23.84375 26.75 22.417969 26.75 C 20.992188 26.75 19.835938 27.894531 19.835938 29.300781 C 19.835938 30.710938 20.992188 31.855469 22.417969 31.855469 Z M 22.417969 31.855469 "/>
<path style=" stroke:none;fill-rule:nonzero;fill:rgb(100%,71.764706%,31.764706%);fill-opacity:1;" d="M 27.585938 31.855469 C 29.011719 31.855469 30.167969 30.710938 30.167969 29.300781 C 30.167969 27.894531 29.011719 26.75 27.585938 26.75 C 26.15625 26.75 25 27.894531 25 29.300781 C 25 30.710938 26.15625 31.855469 27.585938 31.855469 Z M 27.585938 31.855469 "/>
<path style=" stroke:none;fill-rule:nonzero;fill:rgb(100%,84.313725%,39.215686%);fill-opacity:1;" d="M 29.179688 27 C 30.605469 27 31.761719 25.855469 31.761719 24.445312 C 31.761719 23.035156 30.605469 21.894531 29.179688 21.894531 C 27.753906 21.894531 26.597656 23.035156 26.597656 24.445312 C 26.597656 25.855469 27.753906 27 29.179688 27 Z M 29.179688 27 "/>
</g>
</svg>
