<?xml version="1.0" encoding="UTF-8"?>
<svg xmlns="http://www.w3.org/2000/svg" xmlns:xlink="http://www.w3.org/1999/xlink" width="50px" height="50px" viewBox="0 0 50 50" version="1.1">
<g id="surface1">
<path style=" stroke:none;fill-rule:nonzero;fill:rgb(100%,75.686275%,3.921569%);fill-opacity:1;" d="M 42.1875 9.375 L 42.1875 43.75 C 42.1875 46.328125 40.078125 48.4375 37.5 48.4375 L 12.5 48.4375 C 9.921875 48.4375 7.8125 46.328125 7.8125 43.75 L 7.8125 9.375 C 7.8125 6.796875 9.921875 4.6875 12.5 4.6875 L 37.5 4.6875 C 40.078125 4.6875 42.1875 6.796875 42.1875 9.375 Z M 42.1875 9.375 "/>
<path style=" stroke:none;fill-rule:nonzero;fill:rgb(99.607843%,59.607843%,1.176471%);fill-opacity:1;" d="M 32.8125 4.6875 L 32.8125 7.8125 C 32.8125 9.53125 31.40625 10.9375 29.6875 10.9375 L 20.3125 10.9375 C 18.59375 10.9375 17.1875 9.53125 17.1875 7.8125 L 17.1875 4.6875 C 17.1875 2.96875 18.59375 1.5625 20.3125 1.5625 L 29.6875 1.5625 C 31.40625 1.5625 32.8125 2.96875 32.8125 4.6875 Z M 32.8125 4.6875 "/>
<path style=" stroke:none;fill-rule:nonzero;fill:rgb(99.607843%,59.607843%,1.176471%);fill-opacity:1;" d="M 32.8125 29.6875 L 17.1875 29.6875 C 16.324219 29.6875 15.625 28.988281 15.625 28.125 C 15.625 27.261719 16.324219 26.5625 17.1875 26.5625 L 32.8125 26.5625 C 33.675781 26.5625 34.375 27.261719 34.375 28.125 C 34.375 28.988281 33.675781 29.6875 32.8125 29.6875 Z M 32.8125 29.6875 "/>
<path style=" stroke:none;fill-rule:nonzero;fill:rgb(99.607843%,59.607843%,1.176471%);fill-opacity:1;" d="M 31.25 39.0625 L 18.75 39.0625 C 17.886719 39.0625 17.1875 38.363281 17.1875 37.5 C 17.1875 36.636719 17.886719 35.9375 18.75 35.9375 L 31.25 35.9375 C 32.113281 35.9375 32.8125 36.636719 32.8125 37.5 C 32.8125 38.363281 32.113281 39.0625 31.25 39.0625 Z M 31.25 39.0625 "/>
</g>
</svg>
