<!DOCTYPE svg PUBLIC "-//W3C//DTD SVG 1.1//EN" "http://www.w3.org/Graphics/SVG/1.1/DTD/svg11.dtd">
<!-- Uploaded to: SVG Repo, www.svgrepo.com, Transformed by: SVG Repo Mixer Tools -->
<svg width="120px" height="120px" viewBox="-4.8 -4.8 57.60 57.60" xmlns="http://www.w3.org/2000/svg" fill="#ffffff">
<g id="SVGRepo_bgCarrier" stroke-width="0">
<rect x="-4.8" y="-4.8" width="57.60" height="57.60" rx="6.912000000000001" fill="#f2214b" strokewidth="0"/>
</g>
<g id="SVGRepo_tracerCarrier" stroke-linecap="round" stroke-linejoin="round"/>
<g id="SVGRepo_iconCarrier"> <title>code-solid</title> <g id="Layer_2" data-name="Layer 2"> <g id="invisible_box" data-name="invisible box"> <rect width="48" height="48" fill="none"/> </g> <g id="icons_Q2" data-name="icons Q2"> <path d="M20,40h-.5a2,2,0,0,1-1.4-2.5l8-27.9a2,2,0,0,1,3.8,1l-8,28A1.9,1.9,0,0,1,20,40Z"/> <path d="M14,35a2,2,0,0,0,1.3-3.5L7,24l8.3-7.5a2,2,0,0,0-2.6-3l-10,9a2,2,0,0,0,0,3l10,9A1.9,1.9,0,0,0,14,35Z"/> <path d="M34,35a2,2,0,0,1-1.3-3.5L41,24l-8.3-7.5a2,2,0,1,1,2.6-3l10,9a2,2,0,0,1,0,3l-10,9A1.9,1.9,0,0,1,34,35Z"/> </g> </g> </g>
</svg>